<svg version="1.0" xmlns="http://www.w3.org/2000/svg"
viewBox="0 0 1673.000000 374.000000"
 preserveAspectRatio="xMidYMid meet">
<g transform="translate(0.000000,374.000000) scale(0.100000,-0.100000)"
fill="#ffffff" stroke="none">
<path d="M1680 3737 c-3 -3 -30 -7 -60 -11 -199 -22 -414 -87 -600 -181 -467
-234 -819 -668 -955 -1175 -14 -52 -28 -111 -31 -130 -3 -19 -7 -41 -9 -48
-19 -56 -28 -419 -13 -547 80 -698 559 -1303 1218 -1539 89 -33 249 -74 313
-81 25 -3 56 -8 68 -11 51 -12 387 -11 480 1 397 54 763 234 1048 516 102 101
239 279 299 389 113 204 188 410 221 605 6 33 14 80 18 105 9 57 10 432 0 485
-4 22 -10 58 -13 80 -79 520 -410 1005 -881 1292 -59 36 -259 133 -275 133 -5
0 -24 6 -41 14 -60 28 -264 79 -362 92 -53 7 -420 16 -425 11z m380 -801 c14
-2 50 -7 80 -11 85 -11 264 -59 375 -100 422 -157 813 -501 1019 -896 l30 -56
-44 -79 c-299 -548 -874 -933 -1477 -991 -141 -13 -359 -8 -483 12 -80 12
-114 19 -195 40 -250 65 -550 219 -721 370 -146 129 -268 258 -334 355 -13 19
-27 37 -30 40 -10 8 -94 149 -123 206 l-26 50 40 74 c110 203 302 430 490 581
227 184 545 331 829 384 43 8 100 16 144 20 27 3 51 7 53 8 4 5 342 -1 373 -7z"/>
<path d="M1767 2864 c-1 -1 -24 -5 -52 -9 -368 -48 -684 -304 -807 -655 -21
-60 -24 -72 -43 -175 -11 -67 -12 -262 -1 -315 53 -244 142 -410 300 -558 191
-178 410 -266 666 -267 157 0 212 8 329 46 292 96 528 330 626 622 67 202 67
442 -1 645 -115 340 -451 616 -801 658 -49 6 -211 12 -216 8z"/>
<path d="M11049 3632 c0 -15 0 -837 -1 -1827 l0 -1800 81 -3 81 -3 0 1829 0
1828 -80 1 -80 1 -1 -26z"/>
<path d="M5138 3055 c-2 -1 -41 -5 -88 -9 -221 -16 -478 -119 -649 -260 -52
-43 -153 -151 -201 -215 -42 -56 -155 -257 -153 -271 0 -3 -4 -16 -9 -30 -16
-42 -57 -219 -63 -275 -37 -311 40 -626 213 -870 47 -67 158 -187 213 -231
161 -130 378 -224 569 -249 30 -4 64 -9 75 -11 29 -6 220 -5 285 1 278 27 509
133 716 329 l89 83 -166 168 -167 168 -23 -22 c-107 -101 -286 -205 -394 -230
-85 -19 -97 -21 -185 -21 -104 -1 -135 4 -221 30 -216 67 -391 267 -448 510
-26 112 -26 285 0 390 79 318 338 531 644 533 116 1 163 -7 254 -38 114 -40
200 -91 306 -181 l50 -42 110 126 c238 274 220 250 199 273 -33 38 -157 134
-220 172 -149 89 -320 144 -509 163 -66 6 -223 12 -227 9z"/>
<path d="M9269 3045 c-2 -2 -24 -5 -49 -8 -75 -8 -181 -38 -257 -72 -257 -118
-398 -326 -409 -605 -7 -196 48 -354 165 -471 112 -111 262 -179 594 -269 292
-79 383 -116 441 -180 58 -65 62 -171 9 -238 -34 -43 -119 -89 -183 -99 -57
-9 -181 -9 -240 -1 -179 25 -347 101 -521 234 l-56 43 -109 -132 c-60 -72
-129 -155 -152 -184 l-44 -52 29 -26 c35 -32 211 -151 261 -177 311 -162 701
-215 1007 -137 73 19 96 27 175 62 51 23 133 79 182 125 141 131 210 315 202
537 -9 259 -120 424 -369 548 -95 48 -206 85 -429 146 -247 68 -302 89 -372
139 -51 37 -74 85 -74 152 0 131 111 208 302 208 87 0 127 -7 238 -41 73 -22
239 -102 303 -145 23 -16 47 -32 54 -35 7 -5 32 23 65 70 137 197 208 302 208
311 0 15 -137 106 -235 155 -125 63 -260 106 -415 132 -40 7 -316 16 -321 10z"/>
<path d="M13545 3044 c-73 -11 -203 -48 -261 -74 -174 -79 -315 -225 -369
-383 -42 -124 -53 -286 -27 -411 16 -82 67 -194 112 -248 29 -35 141 -128 154
-128 4 0 23 -11 44 -24 55 -35 210 -90 379 -136 81 -22 180 -50 218 -62 39
-12 76 -23 83 -24 38 -7 162 -75 193 -107 53 -53 66 -145 29 -217 -63 -123
-284 -166 -539 -106 -137 33 -315 126 -445 233 -24 20 -31 22 -41 11 -7 -7
-77 -89 -155 -183 l-142 -170 38 -33 c163 -142 447 -277 664 -316 127 -22 177
-27 285 -26 492 1 813 229 863 613 21 166 -8 342 -74 450 -98 158 -294 273
-619 362 -207 57 -332 95 -380 115 -118 50 -165 107 -165 200 0 234 355 284
707 100 87 -45 135 -73 169 -97 l31 -22 74 107 c41 59 93 134 116 167 57 80
75 114 68 125 -11 18 -148 106 -222 144 -72 36 -187 82 -227 91 -11 2 -41 9
-66 16 -25 6 -55 13 -67 15 -13 2 -35 7 -50 10 -36 7 -339 14 -378 8z"/>
<path d="M6340 1843 l0 -1173 628 1 c650 1 719 4 872 44 84 21 233 94 291 142
133 109 201 265 201 458 0 264 -105 427 -350 543 l-83 39 45 27 c66 39 157
133 193 201 58 110 78 242 58 385 -24 181 -169 356 -357 431 -173 69 -203 72
-890 73 l-608 1 0 -1172z m1172 698 c60 -19 130 -73 152 -116 28 -53 29 -165
2 -214 -35 -65 -86 -101 -183 -126 -45 -12 -119 -16 -340 -16 -156 0 -286 2
-290 4 -6 4 -10 470 -4 485 3 10 630 -6 663 -17z m103 -925 c133 -39 189 -97
202 -205 15 -127 -47 -219 -177 -261 -74 -24 -81 -25 -435 -25 l-360 0 0 240
c-1 132 1 247 3 255 3 14 47 16 355 14 304 -1 360 -3 412 -18z"/>
<path d="M12130 1844 l0 -1173 259 1 259 0 0 1172 0 1173 -259 0 -259 0 0
-1173z"/>
<path d="M14789 2981 c0 -49 0 -402 0 -423 1 -17 25 -18 356 -18 l355 0 0
-167 0 -168 -19 31 c-39 65 -109 96 -222 100 -103 4 -168 -14 -236 -65 -121
-92 -128 -240 -19 -403 20 -29 36 -55 36 -58 0 -3 -26 -19 -57 -35 -73 -38
-158 -121 -184 -180 -26 -59 -31 -156 -11 -218 24 -74 111 -156 185 -174 70
-16 99 -19 161 -16 104 6 205 47 280 116 27 23 30 22 60 -17 l26 -35 0 -290 0
-290 259 0 258 0 1 907 c0 499 1 919 1 935 l1 27 355 0 355 0 0 238 0 239
-970 0 -970 0 -1 -36z m556 -741 c9 -8 23 -27 32 -44 20 -39 13 -150 -12 -192
-26 -40 -67 -84 -80 -84 -11 0 -60 71 -94 138 -24 48 -30 117 -12 151 21 38
66 59 111 51 22 -4 47 -13 55 -20z m155 -406 l0 -196 -45 53 c-25 30 -66 79
-90 110 l-44 57 42 27 c49 32 114 99 122 126 4 11 8 19 11 19 2 0 4 -88 4
-196z m468 47 c-3 -23 -10 -27 -60 -38 -31 -6 -68 -19 -83 -29 -22 -14 -95
-114 -95 -129 0 -3 -25 -46 -55 -95 -44 -70 -54 -94 -46 -107 5 -10 41 -48 79
-86 88 -84 128 -103 257 -121 15 -2 20 -10 20 -32 l0 -29 -224 0 c-218 0 -224
0 -241 22 -14 18 -17 47 -17 204 l-1 183 34 -36 33 -37 21 29 c29 41 67 128
76 173 8 45 -11 72 -60 83 -63 14 -74 21 -69 48 l5 25 215 -1 214 -1 -3 -26z
m-868 -138 c0 -5 13 -22 28 -39 15 -17 38 -46 52 -64 14 -18 30 -38 35 -44 54
-58 175 -212 172 -220 -7 -20 -82 -50 -131 -51 -167 -5 -271 128 -234 299 11
52 51 126 68 126 6 0 10 -3 10 -7z"/>
</g>
</svg>
